<svg viewBox="0 0 100 100" xmlns="http://www.w3.org/2000/svg" class="shadow-md dark:border-slate-700" style="width: 563.2px; height: 563.2px;"><path d="M83,64.5Q90,79,75.5,82Q61,85,48,91Q35,97,25,86Q15,75,15,62.5Q15,50,20,41Q25,32,32,24Q39,16,50,15.5Q61,15,66,24.5Q71,34,73.5,42Q76,50,83,64.5Z" stroke="none" fill="#BE9E7C"/><path d="M83,64.5Q90,79,75.5,82Q61,85,48,91Q35,97,25,86Q15,75,15,62.5Q15,50,20,41Q25,32,32,24Q39,16,50,15.5Q61,15,66,24.5Q71,34,73.5,42Q76,50,83,64.5Z" transform="translate(-2.5 -1.88)" stroke="#7f6953" stroke-width="1" fill="none"/></svg>